<svg xmlns="http://www.w3.org/2000/svg" xmlns:xlink="http://www.w3.org/1999/xlink" viewBox="0,0,256,256" width="100px" height="100px" fill-rule="nonzero"><g fill="#ffffff" fill-rule="nonzero" stroke="none" stroke-width="1" stroke-linecap="butt" stroke-linejoin="miter" stroke-miterlimit="10" stroke-dasharray="" stroke-dashoffset="0" font-family="none" font-weight="none" font-size="none" text-anchor="none" style="mix-blend-mode: normal"><g transform="scale(5.12,5.12)"><path d="M21,0c-1.64453,0 -3,1.35547 -3,3v1h-8.3125c-1.22266,0 -2.04297,0.89453 -2.46875,2h-0.125c-2.25,0 -4.09375,1.86719 -4.09375,4.1875v0.8125c0,0.55078 0.44922,1 1,1h1.125l5.09375,34.75c0.26953,1.88672 1.90625,3.25 3.78125,3.25h22c1.875,0 3.39844,-1.39453 3.78125,-3.1875c0,-0.01953 0,-0.04297 0,-0.0625l5.09375,-34.75h1.125c0.55078,0 1,-0.44922 1,-1v-0.8125c0,-2.32031 -1.84375,-4.1875 -4.09375,-4.1875h-0.125c-0.42578,-1.10547 -1.24609,-2 -2.46875,-2h-8.3125v-1c0,-1.64453 -1.35547,-3 -3,-3zM21,2h8c0.55469,0 1,0.44531 1,1v1h-10v-1c0,-0.55469 0.44531,-1 1,-1zM9.6875,6h30.625c0.39844,0 0.875,0.44531 0.875,1c0,0.55078 0.44922,1 1,1h0.71875c1.08203,0 1.92969,0.83594 2.03125,2h-39.875c0.10156,-1.16406 0.94922,-2 2.03125,-2h0.71875c0.55078,0 1,-0.44922 1,-1c0,-0.55469 0.47656,-1 0.875,-1zM7.15625,12h35.6875l-5.03125,34.375c-0.21484,1.00391 -0.89062,1.625 -1.8125,1.625h-22c-0.92187,0 -1.68359,-0.62109 -1.8125,-1.53125zM12.25,16.28125c-0.26562,0.03906 -0.50781,0.18359 -0.66406,0.39844c-0.16016,0.21875 -0.22266,0.49219 -0.17969,0.75781l3.3125,24.90625c0.01172,0.38281 0.24219,0.72266 0.59375,0.87891c0.35156,0.15625 0.75781,0.09766 1.05078,-0.14844c0.29297,-0.25 0.41797,-0.64062 0.32422,-1.01172l-3.28125,-24.90625c-0.03125,-0.27344 -0.17187,-0.51953 -0.39062,-0.6875c-0.21875,-0.16406 -0.49609,-0.23047 -0.76562,-0.1875zM20.65625,16.28125c-0.51562,0.07813 -0.88281,0.54297 -0.84375,1.0625l1.09375,24.90625c0.02734,0.55078 0.49609,0.98047 1.04688,0.95313c0.55078,-0.02734 0.98047,-0.49609 0.95313,-1.04687l-1.09375,-24.90625c-0.00781,-0.26953 -0.125,-0.52734 -0.32422,-0.71094c-0.20312,-0.17969 -0.46875,-0.27344 -0.73828,-0.25781c-0.03125,0 -0.0625,0 -0.09375,0zM29.03125,16.28125c-0.48047,0.07422 -0.83594,0.48438 -0.84375,0.96875l-1.09375,24.90625c-0.02734,0.55078 0.40234,1.01953 0.95313,1.04688c0.55078,0.02734 1.01953,-0.40234 1.04688,-0.95312l1.09375,-24.90625c0.01953,-0.28516 -0.08594,-0.56641 -0.28906,-0.77344c-0.20703,-0.20312 -0.48828,-0.30859 -0.77344,-0.28906c-0.03125,0 -0.0625,0 -0.09375,0zM37.4375,16.28125c-0.44531,0.06641 -0.79297,0.42578 -0.84375,0.875l-3.28125,24.90625c-0.09375,0.37109 0.03125,0.76172 0.32422,1.01172c0.29297,0.24609 0.69922,0.30469 1.05078,0.14844c0.35156,-0.15625 0.58203,-0.49609 0.59375,-0.87891l3.3125,-24.90625c0.04688,-0.30078 -0.04297,-0.60937 -0.25,-0.83594c-0.20703,-0.22656 -0.50781,-0.34375 -0.8125,-0.32031c-0.03125,0 -0.0625,0 -0.09375,0z"></path></g></g></svg>