<svg xmlns="http://www.w3.org/2000/svg" xmlns:xlink="http://www.w3.org/1999/xlink" viewBox="0,0,256,256" width="48px" height="48px" fill-rule="nonzero"><g fill="#ffffff" fill-rule="nonzero" stroke="none" stroke-width="1" stroke-linecap="butt" stroke-linejoin="miter" stroke-miterlimit="10" stroke-dasharray="" stroke-dashoffset="0" font-family="none" font-weight="none" font-size="none" text-anchor="none" style="mix-blend-mode: normal"><g transform="scale(5.33333,5.33333)"><path d="M19,6c-3.29003,0 -6,2.70997 -6,6v5c-0.0102,0.72127 0.36875,1.39216 0.99175,1.75578c0.623,0.36361 1.39351,0.36361 2.01651,0c0.623,-0.36361 1.00195,-1.0345 0.99175,-1.75578v-5c0,-1.12797 0.87203,-2 2,-2h17c1.12797,0 2,0.87203 2,2v24c0,1.12797 -0.87203,2 -2,2h-17c-1.12797,0 -2,-0.87203 -2,-2v-5c0.0102,-0.72127 -0.36875,-1.39216 -0.99175,-1.75578c-0.623,-0.36361 -1.39351,-0.36361 -2.01651,0c-0.623,0.36361 -1.00195,1.0345 -0.99175,1.75578v5c0,3.29003 2.70997,6 6,6h17c3.29003,0 6,-2.70997 6,-6v-24c0,-3.29003 -2.70997,-6 -6,-6zM24.97852,15.98047c-0.81349,0.00101 -1.54533,0.49459 -1.85108,1.24844c-0.30574,0.75385 -0.12447,1.61777 0.4585,2.18515l2.58594,2.58594h-18.17187c-0.72127,-0.0102 -1.39216,0.36875 -1.75578,0.99175c-0.36361,0.623 -0.36361,1.39351 0,2.01651c0.36361,0.623 1.0345,1.00195 1.75578,0.99175h18.17188l-2.58594,2.58594c-0.52248,0.50163 -0.73295,1.24653 -0.55024,1.94742c0.18271,0.70088 0.73006,1.24823 1.43094,1.43094c0.70088,0.18271 1.44578,-0.02776 1.94742,-0.55024l6,-6c0.78074,-0.78106 0.78074,-2.04706 0,-2.82812l-6,-6c-0.37701,-0.38755 -0.89487,-0.60596 -1.43555,-0.60547z"></path></g></g></svg>