<svg width="114" height="27" viewBox="0 0 114 27" fill="none" xmlns="http://www.w3.org/2000/svg">
<path d="M20.141 1.931H13.094V5.585H17.125C17.1443 5.37233 17.2217 5.15967 17.357 4.947C17.4923 4.715 17.6953 4.599 17.966 4.599C18.2367 4.599 18.4493 4.69567 18.604 4.889C18.7587 5.08233 18.836 5.30467 18.836 5.556C18.836 5.82667 18.7393 6.049 18.546 6.223C18.3527 6.37767 18.1207 6.455 17.85 6.455H13.094V9.703H17.966C18.6427 9.703 19.1743 9.529 19.561 9.181C19.9477 8.833 20.141 8.311 20.141 7.615V1.931ZM6.424 14.865C6.424 15.3097 6.34667 15.851 6.192 16.489C6.05667 17.127 5.931 17.6683 5.815 18.113C5.525 19.1763 5.19633 20.2107 4.829 21.216C4.481 22.2213 4.05567 23.2073 3.553 24.174C3.53367 24.232 3.50467 24.29 3.466 24.348C3.44667 24.406 3.41767 24.4543 3.379 24.493C3.321 24.6283 3.21467 24.696 3.06 24.696C2.96333 24.696 2.799 24.5897 2.567 24.377C2.335 24.1837 2.08367 23.9613 1.813 23.71C1.54233 23.4587 1.291 23.217 1.059 22.985C0.827 22.7337 0.662667 22.5693 0.566 22.492C1.64867 21.3707 2.60567 20.1817 3.437 18.925C4.28767 17.649 5.07067 16.3343 5.786 14.981C5.844 14.8843 5.902 14.7877 5.96 14.691C6.03733 14.5943 6.14367 14.546 6.279 14.546C6.337 14.546 6.37567 14.5943 6.395 14.691C6.41433 14.7683 6.424 14.8263 6.424 14.865ZM6.163 11.965C6.163 12.1197 6.076 12.197 5.902 12.197C5.82467 12.197 5.53467 12.139 5.032 12.023C4.54867 11.8877 4.017 11.733 3.437 11.559C2.857 11.385 2.29633 11.2207 1.755 11.066C1.21367 10.9113 0.836667 10.805 0.624 10.747C0.875333 10.341 1.10733 9.935 1.32 9.529C1.53267 9.10367 1.76467 8.69767 2.016 8.311C2.09333 8.195 2.161 8.11767 2.219 8.079C2.25767 8.04033 2.29633 8.01133 2.335 7.992C2.393 7.95333 2.451 7.934 2.509 7.934C2.60567 7.934 2.69267 7.963 2.77 8.021C2.86667 8.05967 2.95367 8.108 3.031 8.166C3.10833 8.224 3.176 8.29167 3.234 8.369C3.31133 8.427 3.379 8.485 3.437 8.543C3.59167 8.69767 3.82367 8.92967 4.133 9.239C4.44233 9.529 4.742 9.83833 5.032 10.167C5.34133 10.4957 5.60233 10.8243 5.815 11.153C6.047 11.4817 6.163 11.7523 6.163 11.965ZM21.968 17.388C21.62 18.0453 21.156 18.722 20.576 19.418C19.996 20.114 19.3677 20.7617 18.691 21.361C18.0337 21.9603 17.3957 22.4823 16.777 22.927C16.0423 23.449 15.1627 23.971 14.138 24.493C13.1133 25.015 12.1467 25.4017 11.238 25.653C11.1413 25.6723 11.0253 25.711 10.89 25.769C10.7547 25.827 10.629 25.856 10.513 25.856C10.339 25.856 10.252 25.7883 10.252 25.653C10.252 25.5757 10.3197 25.5177 10.455 25.479C10.7643 25.3243 11.064 25.16 11.354 24.986C11.6633 24.812 11.963 24.6283 12.253 24.435C12.891 23.9903 13.5677 23.449 14.283 22.811C15.0177 22.173 15.733 21.477 16.429 20.723C17.125 19.9497 17.7533 19.1763 18.314 18.403C18.894 17.6103 19.3483 16.866 19.677 16.17C20.0637 16.3827 20.4503 16.5857 20.837 16.779C21.2237 16.9723 21.6007 17.1753 21.968 17.388ZM26.84 11.82C26.84 12.2067 26.724 12.5257 26.492 12.777C26.26 13.009 25.941 13.125 25.535 13.125H16.139C15.849 13.5117 15.5493 13.8887 15.24 14.256C14.95 14.604 14.6407 14.9423 14.312 15.271H24.955C24.9357 16.431 24.868 17.5813 24.752 18.722C24.6553 19.8627 24.5007 20.9937 24.288 22.115C24.172 22.695 23.9883 23.3233 23.737 24C23.505 24.6767 23.157 25.2567 22.693 25.74C22.2483 26.2233 21.649 26.465 20.895 26.465C20.7017 26.465 20.402 26.3683 19.996 26.175C19.6093 26.001 19.2033 25.7787 18.778 25.508C18.372 25.2373 18.024 24.9667 17.734 24.696C17.444 24.4447 17.299 24.2513 17.299 24.116C17.299 24.058 17.3473 24.029 17.444 24.029C17.5407 24.029 17.647 24.0483 17.763 24.087C17.9177 24.1257 18.0723 24.174 18.227 24.232C18.401 24.29 18.5847 24.3383 18.778 24.377C18.952 24.4157 19.126 24.4543 19.3 24.493C19.474 24.5317 19.6383 24.551 19.793 24.551C20.2957 24.551 20.692 24.406 20.982 24.116C21.2913 23.826 21.5233 23.4683 21.678 23.043C21.852 22.5983 21.9777 22.1633 22.055 21.738C22.2097 20.81 22.3353 19.882 22.432 18.954C22.5287 18.0067 22.5867 17.0593 22.606 16.112H16.023C16.2743 16.2473 16.516 16.373 16.748 16.489C16.98 16.5857 17.212 16.7017 17.444 16.837C16.9027 17.6877 16.1777 18.5093 15.269 19.302C14.3797 20.0947 13.4323 20.81 12.427 21.448C11.4217 22.086 10.455 22.608 9.527 23.014C9.37233 23.072 9.11133 23.1783 8.744 23.333C8.37667 23.4683 8.00933 23.594 7.642 23.71C7.27467 23.826 7.01367 23.884 6.859 23.884C6.82033 23.884 6.76233 23.8743 6.685 23.855C6.60767 23.8357 6.569 23.797 6.569 23.739C6.569 23.6617 6.64633 23.5843 6.801 23.507C6.82033 23.507 6.83 23.507 6.83 23.507C6.84933 23.4877 6.86867 23.478 6.888 23.478C8.512 22.5693 10.049 21.5157 11.499 20.317C12.9683 19.099 14.225 17.6973 15.269 16.112H13.413C12.8137 16.6533 12.1273 17.2237 11.354 17.823C10.6 18.4223 9.80733 18.9637 8.976 19.447C8.14467 19.911 7.33267 20.2493 6.54 20.462C6.482 20.4813 6.395 20.491 6.279 20.491C6.25967 20.491 6.221 20.491 6.163 20.491C6.12433 20.4717 6.105 20.4523 6.105 20.433C6.105 20.375 6.14367 20.3267 6.221 20.288C6.24033 20.2493 6.25967 20.23 6.279 20.23C6.31767 20.2107 6.34667 20.1913 6.366 20.172C7.7 19.2053 8.90833 18.171 9.991 17.069C11.0737 15.9477 12.0017 14.633 12.775 13.125H7.816V12.255H24.375C24.317 12.139 24.288 12.0037 24.288 11.849C24.288 11.5203 24.404 11.211 24.636 10.921C24.868 10.6117 25.1677 10.457 25.535 10.457C25.883 10.457 26.1827 10.602 26.434 10.892C26.7047 11.182 26.84 11.4913 26.84 11.82ZM7.004 5.44C7.004 5.614 6.90733 5.701 6.714 5.701C6.69467 5.701 6.58833 5.672 6.395 5.614C6.221 5.53667 6.02767 5.45933 5.815 5.382C5.60233 5.30467 5.38967 5.22733 5.177 5.15C4.98367 5.07267 4.858 5.02433 4.8 5.005C4.35533 4.85033 3.901 4.69567 3.437 4.541C2.973 4.38633 2.49933 4.251 2.016 4.135C2.074 4.03833 2.18033 3.845 2.335 3.555C2.509 3.24567 2.70233 2.92667 2.915 2.598C3.12767 2.25 3.321 1.95033 3.495 1.699C3.669 1.44766 3.79467 1.322 3.872 1.322C4.046 1.322 4.29733 1.50567 4.626 1.873C4.974 2.221 5.33167 2.63667 5.699 3.12C6.06633 3.60333 6.37567 4.06733 6.627 4.512C6.87833 4.95667 7.004 5.266 7.004 5.44ZM22.548 6.832C22.548 7.91467 22.3837 8.72667 22.055 9.268C21.7457 9.79 21.2623 10.138 20.605 10.312C19.967 10.4667 19.155 10.544 18.169 10.544H10.919V1.061H22.519C22.519 2.02767 22.519 2.99433 22.519 3.961C22.5383 4.90833 22.548 5.86533 22.548 6.832ZM50.243 22.405C50.243 21.3997 50.2333 20.404 50.214 19.418C50.214 18.4127 50.214 17.4073 50.214 16.402H41.775V24.377H48.387C49.6243 24.377 50.243 23.7197 50.243 22.405ZM36.497 14.778C36.497 15.0293 36.468 15.2807 36.41 15.532C36.3713 15.764 36.3133 15.996 36.236 16.228C35.772 17.6587 35.221 19.0797 34.583 20.491C33.9643 21.9023 33.2973 23.2653 32.582 24.58C32.5627 24.6187 32.5337 24.667 32.495 24.725C32.4757 24.783 32.4467 24.8313 32.408 24.87C32.35 24.9667 32.2533 25.015 32.118 25.015C32.0407 25.015 31.886 24.9183 31.654 24.725C31.422 24.5317 31.1707 24.3093 30.9 24.058C30.6487 23.7873 30.3973 23.536 30.146 23.304C29.914 23.0527 29.7497 22.8883 29.653 22.811C30.9097 21.6703 32.0407 20.4523 33.046 19.157C34.0513 17.8423 34.9793 16.4503 35.83 14.981C35.9653 14.7297 36.12 14.604 36.294 14.604C36.4293 14.604 36.497 14.662 36.497 14.778ZM35.395 12.4C35.395 12.4967 35.3273 12.545 35.192 12.545C35.0953 12.545 34.989 12.5257 34.873 12.487C34.8343 12.487 34.7957 12.4773 34.757 12.458C34.351 12.3033 33.945 12.139 33.539 11.965C33.1523 11.791 32.756 11.617 32.35 11.443C31.9633 11.269 31.567 11.1047 31.161 10.95C30.755 10.7953 30.3297 10.6503 29.885 10.515C30.117 10.1283 30.3297 9.74167 30.523 9.355C30.7357 8.96833 30.9677 8.59133 31.219 8.224C31.2577 8.18533 31.2867 8.14667 31.306 8.108C31.3447 8.06933 31.3737 8.04033 31.393 8.021C31.4317 7.98233 31.4703 7.95333 31.509 7.934C31.5477 7.91467 31.596 7.905 31.654 7.905C31.7893 7.905 32.002 8.03067 32.292 8.282C32.582 8.53333 32.901 8.85233 33.249 9.239C33.597 9.62567 33.9353 10.0317 34.264 10.457C34.5927 10.8823 34.8633 11.269 35.076 11.617C35.2887 11.965 35.395 12.226 35.395 12.4ZM52.621 21.883C52.621 23.275 52.273 24.2127 51.577 24.696C50.9003 25.1987 49.9047 25.45 48.59 25.45H39.397V15.416H52.621V21.883ZM37.019 5.788C37.019 5.88467 36.9803 5.95233 36.903 5.991C36.845 6.02967 36.787 6.049 36.729 6.049C36.6517 6.049 36.4003 5.97167 35.975 5.817C35.7623 5.73967 35.511 5.65267 35.221 5.556C34.9503 5.45933 34.6603 5.36267 34.351 5.266C33.7517 5.05333 33.1813 4.86 32.64 4.686C32.0987 4.49267 31.741 4.37667 31.567 4.338C31.625 4.24133 31.741 4.03833 31.915 3.729C32.089 3.41967 32.2727 3.10067 32.466 2.772C32.6593 2.46267 32.8333 2.18233 32.988 1.931C33.162 1.66033 33.2877 1.525 33.365 1.525C33.5003 1.525 33.7033 1.65067 33.974 1.902C34.264 2.134 34.583 2.44333 34.931 2.83C35.279 3.21667 35.6077 3.613 35.917 4.019C36.2457 4.40567 36.5067 4.76333 36.7 5.092C36.9127 5.42067 37.019 5.65267 37.019 5.788ZM55.434 12.458C55.434 12.8253 55.3083 13.183 55.057 13.531C54.8057 13.879 54.4673 14.053 54.042 14.053C53.694 14.053 53.3653 13.966 53.056 13.792C52.766 13.5987 52.621 13.3183 52.621 12.951C52.621 12.4677 52.766 12.1293 53.056 11.936C53.3653 11.7427 53.7327 11.6267 54.158 11.588C53.8873 11.298 53.6167 10.9983 53.346 10.689C53.0753 10.399 52.7757 10.1283 52.447 9.877C51.925 10.2637 51.4513 10.5923 51.026 10.863C50.6007 11.1143 50.156 11.327 49.692 11.501C49.228 11.6557 48.6577 11.8007 47.981 11.936C46.3957 12.226 44.8007 12.4677 43.196 12.661C41.5913 12.8543 39.9867 13.0283 38.382 13.183L37.57 11.037C37.8213 11.037 38.0727 11.0273 38.324 11.008C38.5947 10.9887 38.8267 10.9403 39.02 10.863C39.2907 10.7663 39.484 10.6697 39.6 10.573C39.716 10.457 39.8513 10.3023 40.006 10.109C40.528 9.413 41.0113 8.659 41.456 7.847C41.9007 7.035 42.3163 6.21333 42.703 5.382C43.0897 4.53133 43.457 3.68067 43.805 2.83C44.153 1.96 44.4817 1.10933 44.791 0.277999C45.0423 0.355333 45.2743 0.442333 45.487 0.539C45.719 0.616332 45.9413 0.693665 46.154 0.770998C46.3667 0.848332 46.5793 0.935332 46.792 1.032C47.0047 1.10933 47.2173 1.19633 47.43 1.293C47.4687 1.31233 47.5073 1.33167 47.546 1.351C47.5847 1.37033 47.6137 1.38967 47.633 1.409C47.691 1.467 47.72 1.54433 47.72 1.641C47.72 1.757 47.5847 2.03733 47.314 2.482C47.0433 2.92667 46.6857 3.468 46.241 4.106C45.7963 4.72467 45.313 5.382 44.791 6.078C44.2883 6.774 43.7857 7.45067 43.283 8.108C42.7997 8.76533 42.3647 9.33567 41.978 9.819C41.6107 10.3023 41.3497 10.6407 41.195 10.834C42.2777 10.7953 43.3603 10.7373 44.443 10.66C45.5257 10.5633 46.6083 10.4667 47.691 10.37C48.445 10.2927 49.1507 10.1863 49.808 10.051C50.4847 9.91567 51.171 9.674 51.867 9.326C51.2677 8.93933 50.6683 8.56233 50.069 8.195C49.4697 7.80833 48.8607 7.43133 48.242 7.064L50.417 5.672C50.881 6.02 51.403 6.455 51.983 6.977C52.563 7.47967 53.114 8.04033 53.636 8.659C54.158 9.25833 54.5833 9.88667 54.912 10.544C55.26 11.182 55.434 11.82 55.434 12.458ZM81.302 12.835C81.302 14.807 80.8573 16.5277 79.968 17.997C79.098 19.447 77.822 20.6747 76.14 21.68C75.7727 21.912 75.3183 22.1537 74.777 22.405C74.255 22.6563 73.7137 22.8787 73.153 23.072C72.6117 23.246 72.1187 23.333 71.674 23.333C71.616 23.333 71.5483 23.3233 71.471 23.304C71.3937 23.2653 71.355 23.2073 71.355 23.13C71.355 23.0333 71.413 22.956 71.529 22.898C71.6643 22.8207 71.7707 22.7723 71.848 22.753C72.4473 22.4823 73.0273 22.1923 73.588 21.883C74.168 21.5543 74.7093 21.1773 75.212 20.752C76.3527 19.766 77.213 18.577 77.793 17.185C78.3923 15.7737 78.692 14.3237 78.692 12.835C78.692 11.443 78.3923 10.225 77.793 9.181C77.213 8.137 76.401 7.325 75.357 6.745C74.313 6.14567 73.095 5.846 71.703 5.846C70.5817 5.846 69.5183 6.08767 68.513 6.571C67.527 7.035 66.6473 7.673 65.874 8.485C65.1007 9.27767 64.4917 10.1863 64.047 11.211C63.6023 12.2357 63.38 13.299 63.38 14.401C63.38 14.6523 63.3897 14.9713 63.409 15.358C63.4283 15.7253 63.4767 16.0927 63.554 16.46C63.6507 16.8273 63.7957 17.1367 63.989 17.388C64.2017 17.6393 64.4917 17.765 64.859 17.765C65.265 17.765 65.7 17.5523 66.164 17.127C66.628 16.7017 67.0823 16.1603 67.527 15.503C67.991 14.8263 68.426 14.1303 68.832 13.415C69.238 12.6803 69.5957 11.994 69.905 11.356C70.2143 10.718 70.4367 10.225 70.572 9.877L72.921 11.385C72.6697 11.8683 72.312 12.458 71.848 13.154C71.384 13.8307 70.8523 14.5363 70.253 15.271C69.6537 16.0057 69.0157 16.692 68.339 17.33C67.6623 17.968 66.9857 18.49 66.309 18.896C65.6517 19.2827 65.0233 19.476 64.424 19.476C63.8827 19.476 63.4187 19.3117 63.032 18.983C62.6453 18.635 62.3263 18.2097 62.075 17.707C61.8237 17.2043 61.64 16.6727 61.524 16.112C61.408 15.5513 61.35 15.0583 61.35 14.633C61.35 13.183 61.6593 11.849 62.278 10.631C62.916 9.413 63.7667 8.35933 64.83 7.47C65.8933 6.58067 67.0823 5.89433 68.397 5.411C69.7117 4.90833 71.0553 4.657 72.428 4.657C74.11 4.657 75.618 4.976 76.952 5.614C78.3053 6.23267 79.3687 7.151 80.142 8.369C80.9153 9.56767 81.302 11.0563 81.302 12.835ZM101.022 2.772H98.296V7.412H98.963C98.963 7.19933 99.021 6.99633 99.137 6.803C99.2723 6.59033 99.4753 6.484 99.746 6.484C99.9587 6.484 100.123 6.58067 100.239 6.774C100.355 6.96733 100.413 7.16067 100.413 7.354C100.413 7.54733 100.345 7.72133 100.21 7.876C100.094 8.03067 99.9297 8.108 99.717 8.108H98.296V12.574H98.847C99.485 12.574 100.007 12.3903 100.413 12.023C100.819 11.6363 101.022 11.1143 101.022 10.457V2.772ZM95.425 13.096C95.309 14.3333 95.019 15.5707 94.555 16.808C94.091 18.026 93.482 19.186 92.728 20.288C91.974 21.39 91.104 22.376 90.118 23.246C89.1513 24.116 88.117 24.8313 87.015 25.392C86.9377 25.45 86.841 25.479 86.725 25.479C86.5897 25.479 86.522 25.4307 86.522 25.334C86.522 25.2567 86.551 25.2083 86.609 25.189C86.9763 24.8603 87.334 24.5317 87.682 24.203C88.03 23.8743 88.3587 23.5263 88.668 23.159C89.6927 21.9217 90.5917 20.5103 91.365 18.925C92.1383 17.3397 92.7377 15.7833 93.163 14.256C92.4477 14.778 91.5777 15.2807 90.553 15.764C89.5477 16.2473 88.5907 16.605 87.682 16.837L86.783 14.691C87.2663 14.6523 87.7207 14.5557 88.146 14.401C88.5713 14.227 88.9387 13.9467 89.248 13.56C89.538 13.1927 89.8087 12.806 90.06 12.4C90.3113 11.9747 90.5337 11.5493 90.727 11.124C90.9397 10.6793 91.1427 10.2443 91.336 9.819C91.5293 9.37433 91.7227 8.93933 91.916 8.514C90.408 8.572 88.9097 8.601 87.421 8.601C87.2857 8.601 87.218 8.543 87.218 8.427C87.218 8.34967 87.3243 8.166 87.537 7.876C87.6337 7.74067 87.711 7.615 87.769 7.499C87.8463 7.383 87.8947 7.31533 87.914 7.296C88.6487 6.17467 89.3447 5.05333 90.002 3.932C90.6787 2.79133 91.307 1.60233 91.887 0.364998C92.293 0.500332 92.6893 0.635666 93.076 0.770998C93.482 0.906332 93.8687 1.05133 94.236 1.206C94.294 1.22533 94.3713 1.264 94.468 1.322C94.5647 1.36067 94.613 1.42833 94.613 1.525C94.613 1.60233 94.5743 1.67967 94.497 1.757C93.9557 2.41433 93.3853 3.07167 92.786 3.729C92.2447 4.32833 91.713 4.92767 91.191 5.527C90.6883 6.12633 90.1663 6.716 89.625 7.296C90.495 7.37333 91.365 7.47967 92.235 7.615C93.105 7.731 93.9557 7.85667 94.787 7.992C94.8257 8.01133 94.8643 8.021 94.903 8.021C94.9417 8.021 94.9707 8.04033 94.99 8.079C95.048 8.09833 95.077 8.14667 95.077 8.224C95.077 8.34 94.9223 8.601 94.613 9.007C94.323 9.413 93.946 9.88667 93.482 10.428C93.018 10.9693 92.5347 11.5203 92.032 12.081C91.5293 12.6223 91.075 13.1153 90.669 13.56C90.2823 13.9853 90.002 14.285 89.828 14.459C90.756 14.2657 91.684 14.053 92.612 13.821C93.54 13.589 94.4777 13.3473 95.425 13.096ZM113.927 16.112C113.927 16.6727 113.85 17.2043 113.695 17.707C113.56 18.1903 113.366 18.693 113.115 19.215C112.825 19.795 112.371 20.288 111.752 20.694C111.133 21.1 110.466 21.303 109.751 21.303C109.674 21.303 109.49 21.2643 109.2 21.187C108.91 21.1097 108.63 21.0227 108.359 20.926C108.088 20.81 107.953 20.723 107.953 20.665C107.953 20.549 108.011 20.491 108.127 20.491C108.204 20.491 108.282 20.5007 108.359 20.52C108.436 20.52 108.514 20.52 108.591 20.52C108.746 20.52 108.891 20.5103 109.026 20.491C109.161 20.4717 109.297 20.433 109.432 20.375C109.838 20.2203 110.186 19.911 110.476 19.447C110.766 18.983 110.988 18.49 111.143 17.968C111.298 17.4267 111.375 16.9627 111.375 16.576C111.375 15.764 111.269 14.9327 111.056 14.082C110.843 13.2313 110.505 12.4387 110.041 11.704C109.596 10.95 109.007 10.3603 108.272 9.935C108.678 8.79433 109.007 7.644 109.258 6.484C109.529 5.324 109.732 4.15433 109.867 2.975H107.431V25.769H105.169V20.926C104.86 20.578 104.541 20.2687 104.212 19.998C103.903 19.708 103.613 19.4663 103.342 19.273C102.627 20.1623 101.931 20.868 101.254 21.39C100.577 21.8927 99.8427 22.289 99.05 22.579C98.2573 22.869 97.2907 23.13 96.15 23.362C96.15 19.7853 96.1403 16.2087 96.121 12.632C96.121 9.05533 96.121 5.48833 96.121 1.931H103.284V9.616C103.284 11.008 102.917 12.0037 102.182 12.603C101.467 13.2023 100.442 13.502 99.108 13.502H98.296V20.752C99.0887 20.6553 99.891 20.462 100.703 20.172C101.515 19.882 102.288 19.4953 103.023 19.012C102.501 18.606 101.969 18.1807 101.428 17.736C100.906 17.2913 100.384 16.866 99.862 16.46C99.9587 16.3827 100.152 16.228 100.442 15.996C100.732 15.764 101.022 15.5513 101.312 15.358C101.621 15.1453 101.815 15.039 101.892 15.039C102.027 15.039 102.163 15.1067 102.298 15.242C102.433 15.358 102.598 15.5513 102.791 15.822C103.081 16.17 103.39 16.605 103.719 17.127C104.048 17.6297 104.347 18.113 104.618 18.577C104.889 19.041 105.072 19.3987 105.169 19.65V1.96H112.825C112.941 1.96 112.999 2.02767 112.999 2.163C112.999 2.221 112.989 2.29833 112.97 2.395C112.951 2.47233 112.922 2.55933 112.883 2.656C112.864 2.73333 112.835 2.82033 112.796 2.917C112.757 2.99433 112.728 3.062 112.709 3.12C112.284 4.28 111.791 5.382 111.23 6.426C110.689 7.45067 110.022 8.44633 109.229 9.413C110.118 9.72233 110.911 10.225 111.607 10.921C112.322 11.617 112.883 12.4193 113.289 13.328C113.714 14.2367 113.927 15.1647 113.927 16.112Z" fill="white"/>
</svg>
