<svg xmlns="http://www.w3.org/2000/svg" xmlns:xlink="http://www.w3.org/1999/xlink" viewBox="0,0,256,256" width="64px" height="64px" fill-rule="nonzero"><g fill="#ffffff" fill-rule="nonzero" stroke="none" stroke-width="1" stroke-linecap="butt" stroke-linejoin="miter" stroke-miterlimit="10" stroke-dasharray="" stroke-dashoffset="0" font-family="none" font-weight="none" font-size="none" text-anchor="none" style="mix-blend-mode: normal"><g transform="scale(8,8)"><path d="M4.59,13.444l-3.51,12c-0.177,0.604 -0.061,1.241 0.318,1.746c0.386,0.515 0.979,0.81 1.626,0.81h25.951c0.647,0 1.24,-0.295 1.626,-0.809c0.379,-0.505 0.495,-1.142 0.318,-1.747l-3.51,-12.001c-0.249,-0.849 -1.048,-1.443 -1.943,-1.443h-3.868c0.261,-0.811 0.402,-1.482 0.402,-2c0,-3.309 -2.691,-6 -6,-6c-3.309,0 -6,2.691 -6,6c0,0.518 0.141,1.189 0.402,2h-3.868c-0.895,0 -1.694,0.594 -1.944,1.444zM25.49,14.006l3.486,11.994l-25.976,0.006l3.534,-12.006h4.635c1.476,3.384 3.869,7.342 3.976,7.519c0.181,0.298 0.505,0.481 0.855,0.481c0.35,0 0.674,-0.183 0.855,-0.481c0.107,-0.177 2.5,-4.134 3.975,-7.518zM16,6c2.206,0 4,1.794 4,4c0,0.29 -0.099,1.017 -0.757,2.621c-0.887,2.167 -2.327,4.797 -3.243,6.398c-0.916,-1.602 -2.356,-4.231 -3.244,-6.399c-0.001,-0.002 -0.002,-0.004 -0.003,-0.007c-0.001,-0.002 -0.001,-0.003 -0.002,-0.005c-0.652,-1.594 -0.751,-2.319 -0.751,-2.608c0,-2.206 1.794,-4 4,-4z"></path><path d="M16,12c1.103,0 2,-0.897 2,-2c0,-1.103 -0.897,-2 -2,-2c-1.103,0 -2,0.897 -2,2c0,1.103 0.897,2 2,2zM16,9c0.552,0 1,0.449 1,1c0,0.551 -0.448,1 -1,1c-0.552,0 -1,-0.449 -1,-1c0,-0.551 0.448,-1 1,-1z"></path></g></g></svg>