<svg xmlns="http://www.w3.org/2000/svg" xmlns:xlink="http://www.w3.org/1999/xlink" viewBox="0,0,256,256" width="48px" height="48px" fill-rule="nonzero"><g fill="#14b6da" fill-rule="nonzero" stroke="none" stroke-width="1" stroke-linecap="butt" stroke-linejoin="miter" stroke-miterlimit="10" stroke-dasharray="" stroke-dashoffset="0" font-family="none" font-weight="none" font-size="none" text-anchor="none" style="mix-blend-mode: normal"><g transform="scale(5.33333,5.33333)"><path d="M12.5,5c-4.1245,0 -7.5,3.3755 -7.5,7.5v18c0,4.1245 3.3755,7.5 7.5,7.5h18c4.1245,0 7.5,-3.3755 7.5,-7.5v-18c0,-4.1245 -3.3755,-7.5 -7.5,-7.5zM12.5,8h18c2.5035,0 4.5,1.9965 4.5,4.5v18c0,0.6971 -0.16788,1.34727 -0.44531,1.93359l-10.28125,-10.2793c-0.75984,-0.75984 -1.76628,-1.14062 -2.77344,-1.14062c-1.00716,0 -2.01555,0.38078 -2.77539,1.14063l-10.2793,10.2793c-0.27744,-0.58632 -0.44531,-1.2365 -0.44531,-1.93359v-18c0,-2.5035 1.9965,-4.5 4.5,-4.5zM40,11.51367v19.98633c0,4.687 -3.813,8.5 -8.5,8.5h-19.98633c1.37,1.818 3.53933,3 5.98633,3h14c6.341,0 11.5,-5.159 11.5,-11.5v-14c0,-2.446 -1.182,-4.61633 -3,-5.98633zM27.5,13c-1.38071,0 -2.5,1.11929 -2.5,2.5c0,1.38071 1.11929,2.5 2.5,2.5c1.38071,0 2.5,-1.11929 2.5,-2.5c0,-1.38071 -1.11929,-2.5 -2.5,-2.5zM21.5,23.99609c0.23358,0 0.46618,0.09314 0.65234,0.2793l10.28125,10.2793c-0.58632,0.27744 -1.2365,0.44531 -1.93359,0.44531h-18c-0.6971,0 -1.34727,-0.16788 -1.93359,-0.44531l10.2793,-10.2793c0.18616,-0.18616 0.42072,-0.2793 0.6543,-0.2793z"></path></g></g></svg>