<svg xmlns="http://www.w3.org/2000/svg" xmlns:xlink="http://www.w3.org/1999/xlink" viewBox="0,0,256,256" width="100px" height="100px" fill-rule="nonzero"><g fill="#ffffff" fill-rule="nonzero" stroke="none" stroke-width="1" stroke-linecap="butt" stroke-linejoin="miter" stroke-miterlimit="10" stroke-dasharray="" stroke-dashoffset="0" font-family="none" font-weight="none" font-size="none" text-anchor="none" style="mix-blend-mode: normal"><g transform="scale(5.12,5.12)"><path d="M7,4c-2.74609,0 -5,2.25391 -5,5v24c0,2.74609 2.25391,5 5,5h4.09375c0.13672,1.20313 0.12109,2.31641 -0.1875,3.25c-0.37891,1.14844 -1.08594,2.11328 -2.40625,2.90625c-0.37109,0.23438 -0.54297,0.68359 -0.42969,1.10547c0.11328,0.42188 0.49219,0.72266 0.92969,0.73828c4.24219,0 9.10547,-2.21484 11.5625,-8h22.4375c2.74609,0 5,-2.25391 5,-5v-24c0,-2.74609 -2.25391,-5 -5,-5zM7,6h36c1.65625,0 3,1.34375 3,3v24c0,1.65625 -1.34375,3 -3,3h-23c-0.41797,0 -0.79297,0.26172 -0.9375,0.65625c-1.55469,4.24219 -4.33203,6.26172 -7.21875,7c0.39063,-0.55859 0.76172,-1.14844 0.96875,-1.78125c0.51953,-1.57812 0.47656,-3.30469 0.15625,-5.0625c-0.08984,-0.46484 -0.49219,-0.80469 -0.96875,-0.8125h-5c-1.65625,0 -3,-1.34375 -3,-3v-24c0,-1.65625 1.34375,-3 3,-3z"></path></g></g></svg>