<svg xmlns="http://www.w3.org/2000/svg" xmlns:xlink="http://www.w3.org/1999/xlink" viewBox="0,0,256,256" width="96px" height="96px" fill-rule="nonzero"><g fill="#ffffff" fill-rule="nonzero" stroke="none" stroke-width="1" stroke-linecap="butt" stroke-linejoin="miter" stroke-miterlimit="10" stroke-dasharray="" stroke-dashoffset="0" font-family="none" font-weight="none" font-size="none" text-anchor="none" style="mix-blend-mode: normal"><g transform="scale(5.33333,5.33333)"><path d="M17,2c-5.50508,0 -10,4.49492 -10,10c0,5.50508 4.49492,10 10,10c5.50508,0 10,-4.49492 10,-10c0,-5.50508 -4.49492,-10 -10,-10zM17,5c3.88376,0 7,3.11624 7,7c0,3.88376 -3.11624,7 -7,7c-3.88376,0 -7,-3.11624 -7,-7c0,-3.88376 3.11624,-7 7,-7zM35,24c-6.075,0 -11,4.925 -11,11c0,6.075 4.925,11 11,11c6.075,0 11,-4.925 11,-11c0,-6.075 -4.925,-11 -11,-11zM6.22266,26c-2.052,0 -3.72266,1.78452 -3.72266,3.97852v1.52148c0,3.281 1.69539,6.13234 4.77539,8.02734c2.591,1.595 6.04461,2.47266 9.72461,2.47266c2.19,0 4.43152,-0.32423 6.47852,-0.99023c-0.46,-0.881 -0.81445,-1.82359 -1.06445,-2.80859c-1.697,0.534 -3.57706,0.79883 -5.41406,0.79883c-5.539,0 -11.5,-2.347 -11.5,-7.5v-1.52148c0,-0.531 0.33166,-0.97852 0.72266,-0.97852h17.25195c0.575,-1.103 1.3042,-2.111 2.1582,-3zM35,27c0.552,0 1,0.448 1,1v6h6c0.552,0 1,0.448 1,1c0,0.552 -0.448,1 -1,1h-6v6c0,0.552 -0.448,1 -1,1c-0.552,0 -1,-0.448 -1,-1v-6h-6c-0.552,0 -1,-0.448 -1,-1c0,-0.552 0.448,-1 1,-1h6v-6c0,-0.552 0.448,-1 1,-1z"></path></g></g></svg>